<svg width="24" height="25" viewBox="0 0 24 25" fill="none" xmlns="http://www.w3.org/2000/svg">
<path d="M6.18999 12.845C6.37183 12.6637 6.61817 12.5618 6.87499 12.5618C7.13182 12.5618 7.37816 12.6637 7.55999 12.845C7.64983 12.9347 7.72109 13.0413 7.76971 13.1586C7.81834 13.2758 7.84336 13.4016 7.84336 13.5285C7.84336 13.6555 7.81834 13.7812 7.76971 13.8985C7.72109 14.0158 7.64983 14.1223 7.55999 14.212L5.50499 16.264C5.32518 16.4435 5.18252 16.6566 5.08519 16.8913C4.98785 17.1259 4.93775 17.3775 4.93775 17.6315C4.93775 17.8856 4.98785 18.1371 5.08519 18.3718C5.18252 18.6064 5.32518 18.8196 5.50499 18.999C5.86867 19.3618 6.36135 19.5655 6.87499 19.5655C7.38864 19.5655 7.88132 19.3618 8.24499 18.999L13.039 14.212C13.1288 14.1223 13.2001 14.0158 13.2487 13.8985C13.2973 13.7812 13.3224 13.6555 13.3224 13.5285C13.3224 13.4016 13.2973 13.2758 13.2487 13.1586C13.2001 13.0413 13.1288 12.9347 13.039 12.845C12.949 12.7553 12.8776 12.6487 12.8289 12.5313C12.7802 12.4139 12.7551 12.2881 12.7551 12.161C12.7551 12.0339 12.7802 11.9081 12.8289 11.7907C12.8776 11.6734 12.949 11.5668 13.039 11.477C13.2208 11.2957 13.4672 11.1938 13.724 11.1938C13.9808 11.1938 14.2272 11.2957 14.409 11.477C14.6788 11.7462 14.8928 12.066 15.0389 12.418C15.1849 12.77 15.2601 13.1474 15.2601 13.5285C15.2601 13.9096 15.1849 14.287 15.0389 14.639C14.8928 14.9911 14.6788 15.3108 14.409 15.58L9.61399 20.367C8.88677 21.0927 7.90136 21.5003 6.87399 21.5003C5.84662 21.5003 4.86121 21.0927 4.13399 20.367C3.77437 20.0081 3.48905 19.5818 3.29438 19.1125C3.09971 18.6432 2.99951 18.1401 2.99951 17.632C2.99951 17.1239 3.09971 16.6209 3.29438 16.1515C3.48905 15.6822 3.77437 15.2559 4.13399 14.897L6.18999 12.844V12.845ZM17.81 12.155C17.6282 12.3364 17.3818 12.4382 17.125 12.4382C16.8682 12.4382 16.6218 12.3364 16.44 12.155C16.3502 12.0653 16.2789 11.9588 16.2303 11.8415C16.1817 11.7242 16.1566 11.5985 16.1566 11.4715C16.1566 11.3446 16.1817 11.2188 16.2303 11.1016C16.2789 10.9843 16.3502 10.8777 16.44 10.788L18.495 8.73602C18.6748 8.55657 18.8175 8.34342 18.9148 8.10876C19.0121 7.87411 19.0622 7.62256 19.0622 7.36852C19.0622 7.11448 19.0121 6.86294 18.9148 6.62828C18.8175 6.39363 18.6748 6.18048 18.495 6.00102C18.1313 5.6383 17.6386 5.4346 17.125 5.4346C16.6113 5.4346 16.1187 5.6383 15.755 6.00102L10.962 10.788C10.8722 10.8777 10.8009 10.9843 10.7523 11.1016C10.7037 11.2188 10.6786 11.3446 10.6786 11.4715C10.6786 11.5985 10.7037 11.7242 10.7523 11.8415C10.8009 11.9588 10.8722 12.0653 10.962 12.155C11.052 12.2448 11.1234 12.3514 11.1721 12.4687C11.2208 12.5861 11.2459 12.7119 11.2459 12.839C11.2459 12.9661 11.2208 13.0919 11.1721 13.2093C11.1234 13.3267 11.052 13.4333 10.962 13.523C10.7802 13.7044 10.5338 13.8062 10.277 13.8062C10.0202 13.8062 9.77383 13.7044 9.59199 13.523C9.3222 13.2538 9.10815 12.9341 8.9621 12.582C8.81606 12.23 8.74088 11.8526 8.74088 11.4715C8.74088 11.0904 8.81606 10.713 8.9621 10.361C9.10815 10.009 9.3222 9.68921 9.59199 9.42002L14.387 4.63302C15.1142 3.90732 16.0996 3.49976 17.127 3.49976C18.1544 3.49976 19.1398 3.90732 19.867 4.63302C20.2266 4.99193 20.5119 5.41824 20.7066 5.88755C20.9013 6.35685 21.0015 6.85994 21.0015 7.36802C21.0015 7.8761 20.9013 8.3792 20.7066 8.8485C20.5119 9.31781 20.2266 9.74412 19.867 10.103L17.81 12.156V12.155Z" fill="#0F172A"/>
</svg>
