<svg width="114" height="32" viewBox="0 0 114 32" fill="none" xmlns="http://www.w3.org/2000/svg">
<path d="M54.7706 25.0383H51.2556C51.2334 25.0383 51.2334 25.0383 51.2222 25.0271L48.1967 21.3342L45.1711 25.0271C45.16 25.0383 45.1489 25.0383 45.1378 25.0383H42.3235C42.3013 25.0383 42.2902 25.0271 42.2791 25.016C42.2791 25.0049 42.2791 24.9827 42.2902 24.9715L46.7506 19.4988L42.3458 14.0818C42.3347 14.0595 42.3347 14.0484 42.3347 14.0262C42.3458 14.015 42.3569 14.0039 42.368 14.0039H45.883C45.8941 14.0039 45.9053 14.015 45.9164 14.0262L48.5749 17.3187L51.2778 14.0262C51.289 14.015 51.3001 14.0039 51.3112 14.0039H54.1699C54.181 14.0039 54.2033 14.015 54.2144 14.0262C54.2255 14.0484 54.2144 14.0595 54.2033 14.0818L50.032 19.0984L54.8151 24.9715C54.8262 24.9827 54.8262 25.0049 54.8262 25.016C54.8039 25.0383 54.7928 25.0383 54.7706 25.0383Z" fill="#191825" fill-opacity="0.5"/>
<path d="M73.7805 15.9384C72.2232 15.9384 71.1665 16.8839 70.8551 18.519H76.1498V18.4078C76.1498 17.1063 75.182 15.9384 73.7805 15.9384ZM78.875 20.2098C78.8639 20.2209 78.8527 20.232 78.8416 20.232H70.7994C70.9663 22.1007 72.1787 23.1686 74.1476 23.1686C75.36 23.1686 76.6503 22.757 78.4634 21.7893C78.4968 21.767 78.5302 21.8004 78.5302 21.8338V24.3032C78.5302 24.3254 78.519 24.3365 78.5079 24.3365C76.8172 25.0484 75.1153 25.5378 73.7805 25.5378C70.3211 25.5378 67.8073 23.0128 67.8073 19.5424C67.8073 16.0719 70.3211 13.5469 73.7805 13.5469C76.9395 13.5469 78.964 15.6714 78.964 18.5969C78.964 19.0752 78.8861 20.1764 78.875 20.2098Z" fill="#191825" fill-opacity="0.5"/>
<path d="M95.2039 11.7112C94.214 11.7112 93.4131 10.9215 93.4131 9.95373C93.4131 8.95263 94.214 8.14062 95.2039 8.14062C96.1939 8.14062 96.9948 8.95263 96.9948 9.95373C96.9948 10.9215 96.1939 11.7112 95.2039 11.7112ZM93.7579 25.037C93.7245 25.037 93.7134 25.0259 93.7134 24.9925V14.036C93.7134 14.0138 93.7245 13.9915 93.7468 13.9915H96.65C96.6722 13.9915 96.6834 14.0138 96.6834 14.036V24.9925C96.6834 25.0259 96.6611 25.037 96.6389 25.037H93.7579Z" fill="#191825" fill-opacity="0.5"/>
<path d="M60.0874 23.391C59.5646 23.391 59.0307 23.3132 58.4078 23.1574L58.4189 16.1275C59.142 15.8939 59.7649 15.7938 60.3878 15.7938C62.4011 15.7938 63.747 17.2732 63.747 19.4867C63.747 21.856 62.3121 23.391 60.0874 23.391ZM60.8772 13.5469C60.0541 13.5469 59.2309 13.6915 58.3633 13.9918H55.4713C55.449 13.9918 55.4268 14.0141 55.4268 14.0363V32.0005C56.2944 31.8782 57.3622 31.5667 58.4078 30.8326V25.371C59.1197 25.4711 59.7092 25.5378 60.2765 25.5378C64.2364 25.5378 66.7948 23.1686 66.7948 19.4979C66.7948 15.994 64.3588 13.5469 60.8772 13.5469Z" fill="#191825" fill-opacity="0.5"/>
<path d="M88.4743 22.4771C87.5733 22.9554 86.7613 23.1779 86.0049 23.1779C84.214 23.1779 83.1351 21.9098 83.1351 19.7852C83.1351 17.3381 84.5032 15.7475 86.6278 15.7475C87.2173 15.7475 87.7846 15.8921 88.4743 16.2035V22.4771ZM88.4743 8.1947V13.9232C87.6289 13.6785 86.8836 13.5673 86.1273 13.5673C82.679 13.5673 80.0873 16.159 80.0873 19.6073C80.0873 23.0332 82.3787 25.5249 85.5377 25.5249C86.6278 25.5249 87.6512 25.2468 88.8525 24.635V25.625C89.6422 25.4693 90.5544 25.1578 91.4553 24.5127V7.01562C90.5766 7.13798 89.531 7.43831 88.4743 8.1947Z" fill="#191825" fill-opacity="0.5"/>
<path d="M106.75 22.4579C105.871 22.9584 105.126 23.2031 104.459 23.2031C102.534 23.2031 101.389 21.9351 101.389 19.8105C101.389 17.3967 102.746 15.7727 104.759 15.7727C105.293 15.7727 105.949 15.9841 106.75 16.4068V22.4579ZM109.731 13.8595C109.731 13.7928 109.675 13.7372 109.609 13.7372H107.262C107.195 13.7372 107.128 13.7928 107.128 13.8595V14.26H107.073C105.994 13.7817 105.059 13.5703 104.158 13.5703C100.91 13.5703 98.363 16.2622 98.363 19.7104C98.363 23.192 100.643 25.5279 104.036 25.5279C104.937 25.5279 106.105 25.4612 107.195 24.2154V25.628C107.962 25.4612 108.875 25.1386 109.731 24.5157V13.8595Z" fill="#191825" fill-opacity="0.5"/>
<path d="M34.2925 22.3002H41.5783C41.467 23.1122 41.189 24.0688 40.5661 25.0365H32.9911C32.0678 25.0365 31.3003 24.3135 31.2113 23.4125C31.2113 23.4014 31.2002 23.3902 31.2002 23.368V8.99663C31.2002 8.9855 31.2113 8.97438 31.2113 8.96326C31.3003 8.05114 32.0678 7.32812 32.9911 7.32812H41.5672C41.4559 8.14013 41.1778 9.11898 40.5438 10.0867H34.2925V14.0021H40.4882C40.5104 14.0021 40.5327 14.0244 40.5327 14.0466V16.7607C40.5327 16.783 40.5104 16.8052 40.4882 16.8052H34.2925V22.3002Z" fill="#191825" fill-opacity="0.5"/>
<path d="M25.1715 25.2685C24.4485 25.2685 24.0036 24.7012 24.0036 24.0115C24.0036 23.2774 24.5152 22.7546 25.1715 22.7546C25.8167 22.7546 26.3283 23.2662 26.3283 24.0115C26.3283 24.7568 25.8167 25.2685 25.1715 25.2685ZM25.1715 22.6211C24.4374 22.6211 23.8033 23.1773 23.8033 24.0115C23.8033 24.8013 24.3706 25.4019 25.1715 25.4019C25.8945 25.4019 26.5286 24.8458 26.5286 24.0115C26.5286 23.1773 25.9057 22.6211 25.1715 22.6211Z" fill="#191825" fill-opacity="0.5"/>
<path d="M24.8486 23.9027V23.391H25.1934C25.3714 23.391 25.5716 23.4133 25.5716 23.6246C25.5716 23.8805 25.3825 23.8916 25.1712 23.8916C25.1601 23.9027 24.8486 23.9027 24.8486 23.9027ZM25.8163 23.658C25.8163 23.3243 25.6161 23.1797 25.2157 23.1797H24.5928V24.8259H24.8597V24.1252H25.1156L25.5383 24.8259H25.8497L25.3937 24.1029C25.6384 24.0807 25.8163 23.9583 25.8163 23.658Z" fill="#191825" fill-opacity="0.5"/>
<path d="M112.134 15.8159C111.411 15.8159 110.966 15.2486 110.966 14.559C110.966 13.8248 111.477 13.302 112.134 13.302C112.779 13.302 113.29 13.8137 113.29 14.559C113.29 15.3042 112.779 15.8159 112.134 15.8159ZM112.134 13.1797C111.399 13.1797 110.765 13.7359 110.765 14.5701C110.765 15.3599 111.333 15.9605 112.134 15.9605C112.857 15.9605 113.491 15.4044 113.491 14.5701C113.491 13.7247 112.857 13.1797 112.134 13.1797Z" fill="#191825" fill-opacity="0.5"/>
<path d="M111.8 14.4463V13.9457H112.145C112.323 13.9457 112.523 13.968 112.523 14.1793C112.523 14.4351 112.334 14.4463 112.123 14.4463H111.8ZM112.779 14.2127C112.779 13.879 112.579 13.7344 112.178 13.7344H111.555V15.3806H111.822V14.6799H112.078L112.501 15.3806H112.812L112.356 14.6576C112.59 14.6354 112.779 14.513 112.779 14.2127Z" fill="#191825" fill-opacity="0.5"/>
<path d="M15.772 10.0759L15.2492 8.58534L10.7554 2.58985L11.5563 2.38963L19.287 9.07476L23.8365 7.77333C24.3704 7.63985 24.9822 7.60648 25.4382 7.60648C24.0144 4.52531 21.3893 1.98919 17.9411 0.765622C11.1225 -1.67039 3.61422 1.9002 1.18933 8.72994C0.432943 10.8434 0.266093 13.0236 0.577546 15.0925L11.4673 11.3106L15.772 10.0759Z" fill="#191825" fill-opacity="0.5"/>
<path d="M25.9277 8.78516C25.5273 9.04099 24.9377 9.38582 24.3593 9.57491L19.7988 10.8763L16.7621 20.6426L15.9723 20.8985L16.6175 13.4458L16.2615 11.8997L11.9902 13.1233L0.688843 15.7595C1.58983 20.0976 4.65988 23.8907 9.14259 25.4813C15.9723 27.9173 23.4695 24.3467 25.9055 17.517C26.9511 14.5915 26.8843 11.5215 25.9277 8.78516Z" fill="#191825" fill-opacity="0.5"/>
<path d="M16.2505 11.8894L16.6064 13.4355L15.9612 20.8882L16.751 20.6323L19.7877 10.866L24.3483 9.56459C24.9267 9.37549 25.5162 9.04179 25.9166 8.77483C25.772 8.37439 25.6163 7.98507 25.4383 7.59576C24.9712 7.59576 24.3705 7.618 23.8366 7.76261L19.2871 9.06404L11.5564 2.37891L10.7555 2.57913L15.2382 8.57461L15.761 10.0651L11.4563 11.2998L0.566528 15.0818C0.599898 15.3042 0.644392 15.5378 0.688885 15.7603L11.9791 13.1018L16.2505 11.8894Z" fill="white"/>
</svg>
