<svg width="212" height="32" viewBox="0 0 212 32" fill="none" xmlns="http://www.w3.org/2000/svg">
<path d="M22.801 19.2256C24.6227 24.1611 30.1133 26.6875 35.0502 24.87C39.9844 23.0399 42.5164 17.5549 40.6877 12.618C38.8645 7.67534 33.3825 5.15318 28.4384 6.9749C23.4986 8.80367 20.9765 14.2858 22.801 19.2256Z" fill="white"/>
<path d="M10.608 25.4216C15.8741 25.4216 20.1431 21.1527 20.1431 15.8866C20.1431 10.6205 15.8741 6.35156 10.608 6.35156C5.34198 6.35156 1.073 10.6205 1.073 15.8866C1.073 21.1527 5.34198 25.4216 10.608 25.4216Z" fill="white"/>
<path d="M12.2338 15.7841C12.2338 16.7557 11.4444 17.5521 10.4728 17.5521C9.49698 17.5521 8.70898 16.7571 8.70898 15.7841C8.70898 14.8139 9.49698 14.0273 10.4728 14.0273C11.4444 14.0288 12.2338 14.8139 12.2338 15.7841Z" fill="#191825" fill-opacity="0.5"/>
<path d="M33.4825 15.7841C33.4825 16.7557 32.696 17.5521 31.7244 17.5521C30.7457 17.5521 29.9606 16.7571 29.9606 15.7841C29.9606 14.8139 30.7457 14.0273 31.7244 14.0273C32.6974 14.0288 33.4825 14.8139 33.4825 15.7841Z" fill="#191825" fill-opacity="0.5"/>
<path d="M5.23364 15.7868C5.23364 18.6775 7.58492 21.0246 10.4757 21.0246C13.3593 21.0246 15.7092 18.6775 15.7092 15.7868C15.7092 12.9031 13.3579 10.5547 10.4757 10.5547C7.58633 10.5575 5.23364 12.9046 5.23364 15.7868ZM7.03982 15.7868C7.03982 13.8959 8.58475 12.358 10.4785 12.358C12.3694 12.358 13.9058 13.9001 13.9058 15.7868C13.9058 17.6834 12.3694 19.2241 10.4785 19.2241C8.58475 19.2255 7.03982 17.6862 7.03982 15.7868Z" fill="#191825" fill-opacity="0.5"/>
<path d="M26.4851 15.7868C26.4851 18.6775 28.8336 21.0246 31.7229 21.0246C34.608 21.0246 36.955 18.6775 36.955 15.7868C36.955 12.9031 34.608 10.5547 31.7229 10.5547C28.835 10.5575 26.4851 12.9046 26.4851 15.7868ZM28.2913 15.7868C28.2913 13.8959 29.832 12.358 31.7271 12.358C33.618 12.358 35.1531 13.9001 35.1531 15.7868C35.1531 17.6834 33.618 19.2241 31.7271 19.2241C29.8291 19.2255 28.2913 17.6862 28.2913 15.7868Z" fill="#191825" fill-opacity="0.5"/>
<path d="M28.0715 5.97362C29.1758 5.56691 30.3056 5.3692 31.4212 5.33814C28.3822 3.97821 24.9421 3.28906 21.1306 3.28906C17.3488 3.28906 13.8579 3.99374 10.8203 5.29295C16.3179 5.40168 20.7875 9.70742 21.173 15.1344C21.2662 13.8889 21.5712 12.6575 22.1093 11.491C23.2941 8.91095 25.4138 6.95367 28.0715 5.97362Z" fill="white"/>
<path d="M40.2697 9.6225C40.7668 7.49434 42.3442 5.36477 42.3442 5.36477L35.265 5.36054C31.2953 2.79743 26.4741 1.4375 21.1333 1.4375C15.5891 1.4375 10.5829 2.82991 6.63583 5.41137L0 5.41702C0 5.41702 1.55905 7.52258 2.06319 9.63521C0.772462 11.3905 0.00564872 13.5469 0.00564872 15.8883C0.00564872 21.7334 4.76328 26.4882 10.6111 26.4882C13.9538 26.4882 16.9349 24.9305 18.8794 22.5101L21.1375 25.8908L23.4125 22.4804C24.4364 23.7824 25.7568 24.8387 27.3045 25.5547C29.8789 26.7381 32.764 26.8553 35.4203 25.8739C40.9066 23.8446 43.7239 17.7284 41.6946 12.2492C41.3387 11.2846 40.853 10.4077 40.2697 9.6225ZM21.1319 3.28887C24.9433 3.28887 28.3834 3.97801 31.4224 5.33935C30.3054 5.36901 29.1771 5.56813 28.0727 5.97201C25.415 6.95206 23.2953 8.90935 22.1133 11.4852C21.5753 12.6516 21.2717 13.883 21.1771 15.1286C20.7887 9.7044 16.3192 5.39866 10.8215 5.2871C13.8577 3.99213 17.3472 3.28887 21.1319 3.28887ZM17.6184 20.6248C16.096 22.8702 13.5202 24.3501 10.6083 24.3501C5.93963 24.3501 2.14087 20.5485 2.14087 15.8898C2.14087 11.2183 5.94104 7.42373 10.6083 7.42373C15.2756 7.42373 19.0743 11.2183 19.0743 15.8898C19.0743 16.175 19.0192 16.4433 18.9896 16.7187C18.8484 18.1492 18.388 19.4894 17.6184 20.6248ZM34.6789 23.8672C32.5578 24.6467 30.2574 24.5605 28.2026 23.613C26.7453 22.9379 25.552 21.8802 24.692 20.5669C24.3417 20.0359 24.0339 19.4725 23.8065 18.8553C23.5481 18.1577 23.4196 17.4389 23.3504 16.7145C23.2092 15.2458 23.4224 13.7602 24.0551 12.3833C25.0041 10.3286 26.693 8.7653 28.8141 7.98013C33.1947 6.3646 38.071 8.61138 39.6893 12.9905C41.3063 17.3697 39.0581 22.246 34.6789 23.8672Z" fill="#191825" fill-opacity="0.5"/>
<path d="M54.8521 2.98674L51.7482 4.05859C51.7482 4.05859 51.7482 7.77545 51.7482 8.10872C51.4234 8.10872 48.3081 8.10872 48.3081 8.10872V10.8243C48.3081 10.8243 51.3273 10.8243 51.655 10.8243C51.655 11.1774 51.655 19.5431 51.655 19.5431C51.655 23.6865 53.0657 25.3867 56.5355 25.3867C57.4153 25.3867 58.2555 25.278 59.0986 25.0478L59.2356 25.0139L59.1974 22.198L58.9602 22.2884C58.2781 22.5243 57.7443 22.6401 57.3319 22.6401C55.7023 22.6401 55.0979 21.7235 55.0979 19.2494C55.0979 19.2494 55.0979 11.176 55.0979 10.8286C55.4283 10.8286 59.0675 10.8286 59.0675 10.8286V8.10872C59.0675 8.10872 55.4297 8.10872 55.0979 8.10872C55.0979 7.77262 55.0979 2.90625 55.0979 2.90625L54.8521 2.98674Z" fill="#191825" fill-opacity="0.5"/>
<path d="M65.5846 10.8586C65.5846 9.90253 65.5846 8.10765 65.5846 8.10765H62.4354V25.0863H65.8783V16.5638C65.8783 12.991 67.3795 11.0224 70.0993 11.0224C70.4933 11.0224 70.876 11.0817 71.342 11.213L71.5652 11.2766L71.6781 7.92548L70.1968 7.8125C68.2014 7.81109 66.5901 8.88858 65.5846 10.8586Z" fill="#191825" fill-opacity="0.5"/>
<path d="M77.8143 8.10622H74.555V25.0863H77.9978V8.10622H77.8143ZM74.2217 3.13111C74.2217 4.26085 75.1424 5.17736 76.2693 5.17736C77.3991 5.17736 78.317 4.26085 78.317 3.13111C78.317 2.00278 77.3991 1.08204 76.2693 1.08204C75.1424 1.07921 74.2217 2.00278 74.2217 3.13111Z" fill="#191825" fill-opacity="0.5"/>
<path d="M90.1568 7.70703C87.7943 7.70703 85.8073 8.82548 84.4827 10.8604C84.4827 10.047 84.4827 8.10244 84.4827 8.10244H81.335V31.9979H84.7807C84.7807 31.9979 84.7807 23.6534 84.7807 22.7355C86.0234 24.4258 87.8056 25.355 90.0241 25.355C94.3764 25.355 97.1881 21.7836 97.1881 16.2691C97.1881 11.1485 94.3609 7.70703 90.1568 7.70703ZM89.1952 22.5702C86.4711 22.5702 84.7793 20.2415 84.7793 16.5007C84.7793 12.8897 86.5643 10.5568 89.3265 10.5568C91.9884 10.5568 93.58 12.7683 93.58 16.4654C93.5814 20.2288 91.8995 22.5702 89.1952 22.5702Z" fill="#191825" fill-opacity="0.5"/>
<path d="M107.251 7.71094C105.145 7.71094 103.301 8.10917 101.609 8.92259L101.505 8.97343L101.541 11.9122L101.813 11.7597C103.43 10.8559 104.96 10.3941 106.354 10.3941C108.848 10.3941 110.28 11.8232 110.28 14.3214C110.28 14.3214 110.28 14.3934 110.28 14.4668C109.976 14.4668 108.31 14.4668 108.31 14.4668C102.642 14.4668 99.5234 16.5201 99.5234 20.2426C99.5234 23.2322 101.774 25.3222 104.997 25.3222C107.368 25.3222 109.203 24.3902 110.51 22.6363C110.51 23.3184 110.51 25.0878 110.51 25.0878H113.621V14.8128C113.62 10.1032 111.478 7.71094 107.251 7.71094ZM110.274 17.921C110.274 20.8456 108.515 22.7379 105.792 22.7379C104.124 22.7379 102.961 21.6421 102.961 20.0746C102.961 18.0142 104.931 16.883 108.506 16.883C108.506 16.883 109.979 16.883 110.277 16.883C110.274 17.1471 110.274 17.921 110.274 17.921Z" fill="#191825" fill-opacity="0.5"/>
<path d="M128.243 0C128.243 0 128.243 9.46584 128.243 10.412C126.973 8.64678 125.206 7.71192 122.937 7.71192C118.725 7.71192 115.895 11.1802 115.895 16.3347C115.895 21.6445 118.765 25.3529 122.868 25.3529C125.298 25.3529 127.193 24.2768 128.507 22.1853C128.507 23.0312 128.507 25.0888 128.507 25.0888H131.69V0H128.243ZM123.76 22.5031C121.137 22.5031 119.507 20.2154 119.507 16.5324C119.507 12.8452 121.151 10.4614 123.698 10.4614C126.542 10.4614 128.24 12.7294 128.24 16.5324C128.243 20.1659 126.489 22.5031 123.76 22.5031Z" fill="#191825" fill-opacity="0.5"/>
<path d="M147.075 8.10547L142.193 17.9102L137.679 8.10547H133.8L142.121 25.0855L150.667 8.10547H147.075Z" fill="#191825" fill-opacity="0.5"/>
<path d="M155.679 8.10622H152.419V25.0863H155.866V8.10622H155.679ZM152.089 3.13111C152.089 4.26085 153.009 5.17736 154.137 5.17736C155.271 5.17736 156.185 4.26085 156.185 3.13111C156.185 2.00278 155.268 1.08204 154.137 1.08204C153.01 1.07921 152.089 2.00278 152.089 3.13111Z" fill="#191825" fill-opacity="0.5"/>
<path d="M159.902 12.4613C159.902 14.8493 161.543 16.1075 164.574 17.5903C166.484 18.5294 167.483 19.083 167.483 20.4062C167.483 21.7633 166.257 22.6403 164.353 22.6403C163.008 22.6403 161.514 22.2618 160.034 21.5346L159.782 21.4103L159.671 24.4041L159.785 24.4465C161.2 25.0099 162.687 25.2853 164.224 25.2853C168.435 25.2853 171.153 23.2786 171.153 20.1732C171.153 17.5847 169.432 16.2699 166.448 14.8775C164.263 13.8509 163.347 13.2535 163.347 12.1647C163.347 11.1338 164.366 10.4616 165.942 10.4616C167.366 10.4616 168.755 10.778 170.07 11.405L170.318 11.5194L170.468 8.59051L170.331 8.55097C168.905 8.12731 167.497 7.91408 166.141 7.91408C162.41 7.90843 159.902 9.73861 159.902 12.4613Z" fill="#191825" fill-opacity="0.5"/>
<path d="M181.896 7.71094C176.722 7.71094 173.509 11.1185 173.509 16.5978C173.509 22.0799 176.725 25.4818 181.896 25.4818C187.095 25.4818 190.321 22.0785 190.321 16.5978C190.321 11.1199 187.092 7.71094 181.896 7.71094ZM181.926 22.673C179.066 22.673 177.146 20.2186 177.146 16.5653C177.146 12.8922 179.066 10.4294 181.926 10.4294C184.832 10.4294 186.709 12.84 186.709 16.5653C186.709 20.2765 184.835 22.673 181.926 22.673Z" fill="#191825" fill-opacity="0.5"/>
<path d="M196.673 10.8586C196.673 9.90253 196.673 8.10765 196.673 8.10765H193.524V25.0863H196.967V16.5638C196.967 12.991 198.459 11.0224 201.183 11.0224C201.575 11.0224 201.955 11.0817 202.412 11.213L202.645 11.2766L202.752 7.92548L201.277 7.8125C199.29 7.81109 197.681 8.88858 196.673 10.8586Z" fill="#191825" fill-opacity="0.5"/>
<path d="M210.965 7.35641C211.53 7.92834 211.827 8.68809 211.827 9.50575C211.827 10.3601 211.508 11.1255 210.92 11.689C210.307 12.2708 209.548 12.5829 208.754 12.5829C207.925 12.5829 207.162 12.2567 206.569 11.6438C206.003 11.0563 205.682 10.305 205.682 9.50292C205.682 8.68527 206.009 7.89304 206.619 7.29145C207.191 6.73081 207.926 6.42578 208.754 6.42578C209.603 6.42719 210.375 6.74917 210.965 7.35641ZM207 7.69392C206.503 8.19101 206.237 8.83072 206.237 9.50575C206.237 10.1638 206.483 10.7696 206.958 11.2526C207.433 11.7497 208.065 12.018 208.741 12.018C209.399 12.018 210.032 11.7652 210.52 11.2907C211.001 10.829 211.265 10.1963 211.265 9.50433C211.265 8.8279 211.019 8.2136 210.553 7.74334C210.064 7.24626 209.444 6.985 208.754 6.985C208.073 6.985 207.476 7.2279 207 7.69392ZM208.81 7.75182C209.773 7.75182 210.268 8.10063 210.268 8.73187C210.268 9.16682 210.009 9.50433 209.55 9.64273L210.307 11.1241H209.282L208.651 9.78677H208.384V11.1241H207.455V7.75041L208.81 7.75182ZM208.377 9.23743H208.7C209.114 9.23743 209.313 9.09198 209.313 8.80248C209.313 8.47203 209.104 8.33646 208.651 8.33646H208.377V9.23743Z" fill="#191825" fill-opacity="0.5"/>
</svg>
