<svg width="40" height="41" viewBox="0 0 40 41" fill="none" xmlns="http://www.w3.org/2000/svg">
<path d="M28.38 0.5H11.62C4.34 0.5 0 4.84 0 12.12V28.86C0 36.16 4.34 40.5 11.62 40.5H28.36C35.64 40.5 39.98 36.16 39.98 28.88V12.12C40 4.84 35.66 0.5 28.38 0.5ZM30 31H10C9.18 31 8.5 30.32 8.5 29.5C8.5 28.68 9.18 28 10 28H30C30.82 28 31.5 28.68 31.5 29.5C31.5 30.32 30.82 31 30 31ZM30 22H10C9.18 22 8.5 21.32 8.5 20.5C8.5 19.68 9.18 19 10 19H30C30.82 19 31.5 19.68 31.5 20.5C31.5 21.32 30.82 22 30 22ZM30 13H10C9.18 13 8.5 12.32 8.5 11.5C8.5 10.68 9.18 10 10 10H30C30.82 10 31.5 10.68 31.5 11.5C31.5 12.32 30.82 13 30 13Z" fill="#5D50C6"/>
</svg>
