<svg width="174" height="32" viewBox="0 0 174 32" fill="none" xmlns="http://www.w3.org/2000/svg">
<path d="M100.241 31.14L113.545 1.03163C113.756 0.57475 113.509 0.181833 112.997 0.181833H103.677C103.404 0.197332 103.14 0.285015 102.912 0.435924C102.684 0.586832 102.5 0.795556 102.379 1.04077L89.2394 31.14C89.0476 31.606 89.2943 31.9898 89.7968 31.9898H98.9436C99.4553 31.9898 100.04 31.606 100.241 31.14ZM147.949 23.035L168.6 0.190971H144.449L138.985 8.99048H148.46L127.471 31.999H153.029L162.55 23.035H147.949ZM59.5696 0.181833H43.5788C43.1048 0.209305 42.6464 0.361515 42.2501 0.623061C41.8537 0.884606 41.5335 1.2462 41.3219 1.67126L28.7394 30.5095C28.3739 31.3319 28.8216 31.999 29.7171 31.999H37.6394C38.5349 31.999 39.5583 31.3319 39.9055 30.5187L43.4966 22.3405H47.2156C48.3761 22.2674 48.8695 22.6969 48.2299 24.0401L45.4703 30.5095C45.1231 31.3319 45.5617 31.999 46.4572 31.999H54.3795C54.8554 31.974 55.3161 31.8229 55.7143 31.5612C56.1125 31.2994 56.4339 30.9365 56.6456 30.5095L60.2458 22.1852C61.3789 19.4804 59.7433 17.3879 57.3675 17.2783C59.4691 16.5199 61.4063 14.4274 62.2744 12.5267L64.1385 8.14069C66.3863 3.0419 64.7872 0.11787 59.5696 0.190971M54.9095 9.28289L52.9357 13.6232C52.4789 14.6649 51.821 14.7472 51.1631 14.7198H46.713L49.6919 7.95793H53.9592C55.0008 8.0219 55.2658 8.39654 54.9095 9.28289ZM90.6923 0.172696H73.7512C73.4119 0.190378 73.0834 0.297824 72.7992 0.484053C72.5151 0.670282 72.2855 0.928617 72.1339 1.23266L59.1676 30.9299C58.9209 31.5147 59.2224 31.9807 59.8621 31.9807H78.0002C83.7477 31.8985 87.0464 30.6283 89.6689 24.5427L91.533 20.4856C92.995 17.0133 91.5604 15.5056 88.8191 15.067C91.1035 14.3634 92.8214 12.2161 93.5615 10.3246L95.0784 7.10814C96.9424 2.81346 95.3891 0.11787 90.6832 0.172696M82.3771 20.0927L81.2258 22.4045C80.6501 24.0127 79.645 24.4513 78.2286 24.4696H72.9288L75.4691 18.4845H80.7689C82.2674 18.5941 82.8523 18.9596 82.3771 20.0927ZM85.4199 9.43822L84.625 11.2657L84.5062 11.5033C84.3742 11.8845 84.1198 12.2114 83.7826 12.4329C83.4454 12.6543 83.0444 12.758 82.6421 12.7278H78.0459L80.1475 7.88483H84.8351C85.6758 7.93966 85.8128 8.48791 85.4199 9.43822ZM116.479 0.181833L112.54 8.99048H118.16C118.544 8.99048 118.726 9.26461 118.571 9.62098L108.748 31.3685C108.584 31.7157 108.776 31.999 109.159 31.999H119.165C119.549 31.999 119.987 31.7157 120.143 31.3593L129.573 9.62098C129.663 9.43813 129.8 9.28256 129.971 9.17017C130.141 9.05779 130.338 8.99262 130.541 8.98135H136.307L141.735 0.181833H116.479ZM33.4635 11.019L34.7062 8.30516C37.2099 2.58502 35.556 0.127008 30.64 0.190971H18.8068C13.9365 0.127008 9.87937 2.86829 7.63152 7.96707L3.97647 18.2926H0.522461L7.12895 27.2109L18.0484 18.2926H15.2706L18.4779 10.8454C18.9987 9.62098 19.8942 9.03617 20.8536 8.99048H22.7177C23.1563 9.00876 23.4578 9.14582 23.6315 9.33771L29.4247 4.46737L33.4635 11.019Z" fill="#191825" fill-opacity="0.5"/>
<path d="M6.88232 29.8327L2.02112 23.674L1.76526 24.2222C-0.491725 29.3576 -0.117083 31.9161 4.75326 31.9892H16.4311C21.2649 31.9161 25.4956 29.3576 27.7617 24.2222L31.234 16.2634H34.3408L29.041 7.33594L18.2129 16.2634H21.1827L18.9896 21.3347C18.4597 22.413 17.6556 22.9978 16.7966 23.0343H15.2432L6.88232 29.8327Z" fill="#191825" fill-opacity="0.5"/>
<path d="M172.446 0.000121574C172.876 0.000121574 173.241 0.155461 173.543 0.457002C173.845 0.758543 174 1.12405 174 1.55351C174 1.97384 173.845 2.33935 173.543 2.65003C173.241 2.96071 172.876 3.10691 172.446 3.10691C172.242 3.11005 172.039 3.07111 171.851 2.99251C171.662 2.91391 171.492 2.79733 171.35 2.65003C171.048 2.33935 170.893 1.97384 170.893 1.55351C170.893 1.13318 171.048 0.749405 171.35 0.457002C171.492 0.310133 171.662 0.193842 171.851 0.115274C172.04 0.0367063 172.242 -0.00248031 172.446 0.000121574ZM172.446 2.8145C172.614 2.81829 172.781 2.78783 172.936 2.72499C173.092 2.66214 173.233 2.56823 173.351 2.449C173.471 2.33132 173.565 2.19028 173.628 2.03467C173.691 1.87905 173.721 1.71216 173.717 1.54438C173.72 1.37812 173.689 1.21297 173.626 1.05902C173.563 0.905057 173.47 0.765513 173.351 0.648891C173.233 0.52922 173.092 0.435021 172.937 0.372144C172.781 0.309268 172.614 0.279057 172.446 0.283387C172.28 0.279772 172.115 0.310346 171.961 0.373218C171.807 0.436089 171.667 0.529918 171.551 0.648891C171.304 0.895607 171.185 1.19715 171.185 1.54438C171.185 1.89161 171.304 2.20228 171.551 2.449C171.798 2.69571 172.099 2.8145 172.446 2.8145ZM173.241 2.3759H172.876L172.419 1.71799H172.227V2.3759H171.898V0.703717H172.419C172.602 0.703717 172.748 0.749405 172.858 0.831644C172.967 0.92302 173.031 1.04181 173.031 1.19715C173.031 1.39818 172.922 1.55351 172.711 1.63575L173.241 2.3759ZM172.236 1.44386H172.41C172.62 1.44386 172.721 1.36162 172.721 1.20629C172.721 1.05095 172.629 0.977845 172.419 0.977845H172.236V1.44386Z" fill="#191825" fill-opacity="0.5"/>
</svg>
